<svg width="22" height="22" viewBox="0 0 22 22" fill="none" xmlns="http://www.w3.org/2000/svg">
<path fill-rule="evenodd" clip-rule="evenodd" d="M15.3199 13.9056L16.4165 15.0023C16.8277 14.9795 17.2465 15.1252 17.5607 15.4393L20.5607 18.4393C21.1464 19.0251 21.1464 19.9749 20.5607 20.5607C19.9749 21.1464 19.0251 21.1464 18.4393 20.5607L15.4393 17.5607C15.1252 17.2465 14.9795 16.8277 15.0023 16.4165L13.9056 15.3199C12.551 16.3729 10.8487 17 9 17C4.58172 17 1 13.4183 1 9C1 4.58172 4.58172 1 9 1C13.4183 1 17 4.58172 17 9C17 10.8487 16.3729 12.551 15.3199 13.9056V13.9056ZM9.00001 15C12.3137 15 15 12.3137 15 9C15 5.68629 12.3137 3 9.00001 3C5.6863 3 3.00001 5.68629 3.00001 9C3.00001 12.3137 5.6863 15 9.00001 15Z" fill="#A0AEC0"/>
<path d="M16.4165 15.0023L16.063 15.3559L16.221 15.5139L16.4442 15.5015L16.4165 15.0023ZM17.5607 15.4393L17.9142 15.0858L17.9142 15.0858L17.5607 15.4393ZM20.5607 18.4393L20.2071 18.7929L20.2071 18.7929L20.5607 18.4393ZM18.4393 20.5607L18.7929 20.2071L18.7929 20.2071L18.4393 20.5607ZM15.4393 17.5607L15.0858 17.9142L15.0858 17.9142L15.4393 17.5607ZM15.0023 16.4165L15.5015 16.4442L15.5139 16.221L15.3559 16.063L15.0023 16.4165ZM13.9056 15.3199L14.2592 14.9663L13.9472 14.6543L13.5988 14.9251L13.9056 15.3199ZM14.9663 14.2592L16.063 15.3559L16.7701 14.6488L15.6734 13.5521L14.9663 14.2592ZM16.4442 15.5015C16.7194 15.4863 16.9977 15.5835 17.2071 15.7929L17.9142 15.0858C17.4953 14.6669 16.9361 14.4728 16.3889 14.5031L16.4442 15.5015ZM17.2071 15.7929L20.2071 18.7929L20.9142 18.0858L17.9142 15.0858L17.2071 15.7929ZM20.2071 18.7929C20.5976 19.1834 20.5976 19.8166 20.2071 20.2071L20.9142 20.9142C21.6953 20.1332 21.6953 18.8668 20.9142 18.0858L20.2071 18.7929ZM20.2071 20.2071C19.8166 20.5976 19.1834 20.5976 18.7929 20.2071L18.0858 20.9142C18.8668 21.6953 20.1332 21.6953 20.9142 20.9142L20.2071 20.2071ZM18.7929 20.2071L15.7929 17.2071L15.0858 17.9142L18.0858 20.9142L18.7929 20.2071ZM15.7929 17.2071C15.5835 16.9977 15.4863 16.7194 15.5015 16.4442L14.5031 16.3889C14.4728 16.9361 14.6669 17.4953 15.0858 17.9142L15.7929 17.2071ZM15.3559 16.063L14.2592 14.9663L13.5521 15.6734L14.6488 16.7701L15.3559 16.063ZM13.5988 14.9251C12.3287 15.9124 10.7337 16.5 9 16.5V17.5C10.9637 17.5 12.7732 16.8335 14.2125 15.7146L13.5988 14.9251ZM9 16.5C4.85786 16.5 1.5 13.1421 1.5 9H0.5C0.5 13.6944 4.30558 17.5 9 17.5V16.5ZM1.5 9C1.5 4.85786 4.85786 1.5 9 1.5V0.5C4.30558 0.5 0.5 4.30558 0.5 9H1.5ZM9 1.5C13.1421 1.5 16.5 4.85786 16.5 9H17.5C17.5 4.30558 13.6944 0.5 9 0.5V1.5ZM16.5 9C16.5 10.7337 15.9124 12.3287 14.9251 13.5988L15.7146 14.2125C16.8335 12.7732 17.5 10.9637 17.5 9H16.5ZM9.00001 15.5C12.5899 15.5 15.5 12.5899 15.5 9H14.5C14.5 12.0376 12.0376 14.5 9.00001 14.5V15.5ZM15.5 9C15.5 5.41015 12.5899 2.5 9.00001 2.5V3.5C12.0376 3.5 14.5 5.96243 14.5 9H15.5ZM9.00001 2.5C5.41016 2.5 2.50001 5.41015 2.50001 9H3.50001C3.50001 5.96243 5.96244 3.5 9.00001 3.5V2.5ZM2.50001 9C2.50001 12.5899 5.41016 15.5 9.00001 15.5V14.5C5.96244 14.5 3.50001 12.0376 3.50001 9H2.50001Z" fill="black"/>
</svg>
